<?xml version="1.0" encoding="UTF-8" standalone="no"?>
<!-- Created with Inkscape (http://www.inkscape.org/) -->

<svg
   xmlns:dc="http://purl.org/dc/elements/1.1/"
   xmlns:cc="http://creativecommons.org/ns#"
   xmlns:rdf="http://www.w3.org/1999/02/22-rdf-syntax-ns#"
   xmlns:svg="http://www.w3.org/2000/svg"
   xmlns="http://www.w3.org/2000/svg"
   xmlns:sodipodi="http://sodipodi.sourceforge.net/DTD/sodipodi-0.dtd"
   xmlns:inkscape="http://www.inkscape.org/namespaces/inkscape"
   width="720"
   height="720"
   id="svg2"
   version="1.1"
   inkscape:version="0.48.4 r9939"
   sodipodi:docname="ringo-tree.svg"
   inkscape:export-filename="/home/qsf/デスクトップ/ringo-tree-2.png"
   inkscape:export-xdpi="300"
   inkscape:export-ydpi="300">
  <defs
     id="defs4">
    <filter
       id="filter4356"
       inkscape:label="Chalk and sponge"
       inkscape:menu="Distort"
       inkscape:menu-tooltip="Low turbulence gives sponge look and high turbulence chalk"
       width="1.6"
       height="2"
       y="-0.5"
       x="0"
       color-interpolation-filters="sRGB">
      <feTurbulence
         id="feTurbulence4358"
         baseFrequency="0.4"
         type="fractalNoise"
         seed="0"
         numOctaves="3"
         result="result1" />
      <feOffset
         id="feOffset4360"
         dx="-5"
         dy="-5"
         result="result2" />
      <feDisplacementMap
         id="feDisplacementMap4362"
         in2="result1"
         xChannelSelector="R"
         yChannelSelector="G"
         scale="30"
         in="SourceGraphic" />
    </filter>
  </defs>
  <sodipodi:namedview
     id="base"
     pagecolor="#ffffff"
     bordercolor="#666666"
     borderopacity="1.0"
     inkscape:pageopacity="0.0"
     inkscape:pageshadow="2"
     inkscape:zoom="2.8"
     inkscape:cx="368.3948"
     inkscape:cy="176.68116"
     inkscape:document-units="px"
     inkscape:current-layer="g3904"
     showgrid="false"
     showguides="false"
     inkscape:window-width="1680"
     inkscape:window-height="1012"
     inkscape:window-x="0"
     inkscape:window-y="0"
     inkscape:window-maximized="1">
    <sodipodi:guide
       position="150.96649,55.781201"
       orientation="-43.670086,0"
       id="guide3871" />
    <sodipodi:guide
       position="150.96649,99.451287"
       orientation="0,417.8759"
       id="guide3873" />
    <sodipodi:guide
       position="568.84238,99.451287"
       orientation="43.670086,0"
       id="guide3875" />
    <sodipodi:guide
       position="568.84238,55.781201"
       orientation="0,-417.8759"
       id="guide3877" />
    <sodipodi:guide
       position="421.99155,345.34816"
       orientation="-56.066927,0"
       id="guide3879" />
    <sodipodi:guide
       position="421.99155,401.41509"
       orientation="0,56.066927"
       id="guide3881" />
    <sodipodi:guide
       position="478.05848,401.41509"
       orientation="56.066927,0"
       id="guide3883" />
    <sodipodi:guide
       position="478.05848,345.34816"
       orientation="0,-56.066927"
       id="guide3885" />
    <sodipodi:guide
       position="449.37566,418.77786"
       orientation="29.516396,0.59032732"
       id="guide3887" />
    <sodipodi:guide
       position="360,624.13082"
       orientation="0,5.6843419e-14"
       id="guide3889" />
    <sodipodi:guide
       position="360,620.17931"
       orientation="0,5.6843419e-14"
       id="guide3891" />
    <sodipodi:guide
       position="422.08711,365.39215"
       orientation="-56.066927,0"
       id="guide3916" />
    <sodipodi:guide
       position="422.08711,421.45908"
       orientation="0,56.066927"
       id="guide3918" />
    <sodipodi:guide
       position="478.15404,421.45908"
       orientation="56.066927,0"
       id="guide3920" />
    <sodipodi:guide
       position="478.15404,365.39215"
       orientation="0,-56.066927"
       id="guide3922" />
    <sodipodi:guide
       position="449.47122,438.82185"
       orientation="29.516396,0.59032732"
       id="guide3924" />
    <sodipodi:guide
       position="360.09556,644.17481"
       orientation="0,5.6843419e-14"
       id="guide3926" />
    <sodipodi:guide
       position="360.09556,640.2233"
       orientation="0,5.6843419e-14"
       id="guide3928" />
    <sodipodi:guide
       position="151.06205,75.825194"
       orientation="-43.670086,0"
       id="guide3930" />
    <sodipodi:guide
       position="151.06205,119.49528"
       orientation="0,417.8759"
       id="guide3932" />
    <sodipodi:guide
       position="568.93795,119.49528"
       orientation="43.670086,0"
       id="guide3934" />
    <sodipodi:guide
       position="568.93795,75.825194"
       orientation="0,-417.8759"
       id="guide3936" />
    <sodipodi:guide
       position="422.08711,365.39215"
       orientation="-56.066927,0"
       id="guide3938" />
    <sodipodi:guide
       position="422.08711,421.45908"
       orientation="0,56.066927"
       id="guide3940" />
    <sodipodi:guide
       position="478.15404,421.45908"
       orientation="56.066927,0"
       id="guide3942" />
    <sodipodi:guide
       position="478.15404,365.39215"
       orientation="0,-56.066927"
       id="guide3944" />
    <sodipodi:guide
       position="449.47122,438.82185"
       orientation="29.516396,0.59032732"
       id="guide3946" />
    <sodipodi:guide
       position="360.09556,644.17481"
       orientation="0,5.6843419e-14"
       id="guide3948" />
    <sodipodi:guide
       position="360.09556,640.2233"
       orientation="0,5.6843419e-14"
       id="guide3950" />
    <sodipodi:guide
       position="151.06205,75.825194"
       orientation="-43.670086,0"
       id="guide3952" />
    <sodipodi:guide
       position="151.06205,119.49528"
       orientation="0,417.8759"
       id="guide3954" />
    <sodipodi:guide
       position="568.93795,119.49528"
       orientation="43.670086,0"
       id="guide3956" />
    <sodipodi:guide
       position="568.93795,75.825194"
       orientation="0,-417.8759"
       id="guide3958" />
    <sodipodi:guide
       position="422.08711,365.39215"
       orientation="-56.066927,0"
       id="guide3960" />
    <sodipodi:guide
       position="422.08711,421.45908"
       orientation="0,56.066927"
       id="guide3962" />
    <sodipodi:guide
       position="478.15404,421.45908"
       orientation="56.066927,0"
       id="guide3964" />
    <sodipodi:guide
       position="478.15404,365.39215"
       orientation="0,-56.066927"
       id="guide3966" />
    <sodipodi:guide
       position="449.47122,438.82185"
       orientation="29.516396,0.59032732"
       id="guide3968" />
    <sodipodi:guide
       position="360.09556,644.17481"
       orientation="0,5.6843419e-14"
       id="guide3970" />
    <sodipodi:guide
       position="360.09556,640.2233"
       orientation="0,5.6843419e-14"
       id="guide3972" />
    <sodipodi:guide
       position="151.06205,75.825194"
       orientation="-43.670086,0"
       id="guide3974" />
    <sodipodi:guide
       position="151.06205,119.49528"
       orientation="0,417.8759"
       id="guide3976" />
    <sodipodi:guide
       position="568.93795,119.49528"
       orientation="43.670086,0"
       id="guide3978" />
    <sodipodi:guide
       position="568.93795,75.825194"
       orientation="0,-417.8759"
       id="guide3980" />
    <sodipodi:guide
       position="422.08711,365.39215"
       orientation="-56.066927,0"
       id="guide3982" />
    <sodipodi:guide
       position="422.08711,421.45908"
       orientation="0,56.066927"
       id="guide3984" />
    <sodipodi:guide
       position="478.15404,421.45908"
       orientation="56.066927,0"
       id="guide3986" />
    <sodipodi:guide
       position="478.15404,365.39215"
       orientation="0,-56.066927"
       id="guide3988" />
    <sodipodi:guide
       position="449.47122,438.82185"
       orientation="29.516396,0.59032732"
       id="guide3990" />
    <sodipodi:guide
       position="360.09556,644.17481"
       orientation="0,5.6843419e-14"
       id="guide3992" />
    <sodipodi:guide
       position="360.09556,640.2233"
       orientation="0,5.6843419e-14"
       id="guide3994" />
    <sodipodi:guide
       position="151.06205,75.825194"
       orientation="-43.670086,0"
       id="guide3996" />
    <sodipodi:guide
       position="151.06205,119.49528"
       orientation="0,417.8759"
       id="guide3998" />
    <sodipodi:guide
       position="568.93795,119.49528"
       orientation="43.670086,0"
       id="guide4000" />
    <sodipodi:guide
       position="568.93795,75.825194"
       orientation="0,-417.8759"
       id="guide4002" />
    <sodipodi:guide
       position="422.08711,365.39215"
       orientation="-56.066927,0"
       id="guide4004" />
    <sodipodi:guide
       position="422.08711,421.45908"
       orientation="0,56.066927"
       id="guide4006" />
    <sodipodi:guide
       position="478.15404,421.45908"
       orientation="56.066927,0"
       id="guide4008" />
    <sodipodi:guide
       position="478.15404,365.39215"
       orientation="0,-56.066927"
       id="guide4010" />
    <sodipodi:guide
       position="449.47122,438.82185"
       orientation="29.516396,0.59032732"
       id="guide4012" />
    <sodipodi:guide
       position="360.09556,644.17481"
       orientation="0,5.6843419e-14"
       id="guide4014" />
    <sodipodi:guide
       position="360.09556,640.2233"
       orientation="0,5.6843419e-14"
       id="guide4016" />
    <sodipodi:guide
       position="151.06205,75.825194"
       orientation="-43.670086,0"
       id="guide4018" />
    <sodipodi:guide
       position="151.06205,119.49528"
       orientation="0,417.8759"
       id="guide4020" />
    <sodipodi:guide
       position="568.93795,119.49528"
       orientation="43.670086,0"
       id="guide4022" />
    <sodipodi:guide
       position="568.93795,75.825194"
       orientation="0,-417.8759"
       id="guide4024" />
    <sodipodi:guide
       position="422.08711,365.39215"
       orientation="-56.066927,0"
       id="guide4026" />
    <sodipodi:guide
       position="422.08711,421.45908"
       orientation="0,56.066927"
       id="guide4028" />
    <sodipodi:guide
       position="478.15404,421.45908"
       orientation="56.066927,0"
       id="guide4030" />
    <sodipodi:guide
       position="478.15404,365.39215"
       orientation="0,-56.066927"
       id="guide4032" />
    <sodipodi:guide
       position="449.47122,438.82185"
       orientation="29.516396,0.59032732"
       id="guide4034" />
    <sodipodi:guide
       position="360.09556,644.17481"
       orientation="0,5.6843419e-14"
       id="guide4036" />
    <sodipodi:guide
       position="360.09556,640.2233"
       orientation="0,5.6843419e-14"
       id="guide4038" />
    <sodipodi:guide
       position="151.06205,75.825194"
       orientation="-43.670086,0"
       id="guide4040" />
    <sodipodi:guide
       position="151.06205,119.49528"
       orientation="0,417.8759"
       id="guide4042" />
    <sodipodi:guide
       position="568.93795,119.49528"
       orientation="43.670086,0"
       id="guide4044" />
    <sodipodi:guide
       position="568.93795,75.825194"
       orientation="0,-417.8759"
       id="guide4046" />
    <sodipodi:guide
       position="422.08711,365.39215"
       orientation="-56.066927,0"
       id="guide4048" />
    <sodipodi:guide
       position="422.08711,421.45908"
       orientation="0,56.066927"
       id="guide4050" />
    <sodipodi:guide
       position="478.15404,421.45908"
       orientation="56.066927,0"
       id="guide4052" />
    <sodipodi:guide
       position="478.15404,365.39215"
       orientation="0,-56.066927"
       id="guide4054" />
    <sodipodi:guide
       position="449.47122,438.82185"
       orientation="29.516396,0.59032732"
       id="guide4056" />
    <sodipodi:guide
       position="360.09556,644.17481"
       orientation="0,5.6843419e-14"
       id="guide4058" />
    <sodipodi:guide
       position="360.09556,640.2233"
       orientation="0,5.6843419e-14"
       id="guide4060" />
    <sodipodi:guide
       position="151.06205,75.825194"
       orientation="-43.670086,0"
       id="guide4062" />
    <sodipodi:guide
       position="151.06205,119.49528"
       orientation="0,417.8759"
       id="guide4064" />
    <sodipodi:guide
       position="568.93795,119.49528"
       orientation="43.670086,0"
       id="guide4066" />
    <sodipodi:guide
       position="568.93795,75.825194"
       orientation="0,-417.8759"
       id="guide4068" />
    <sodipodi:guide
       position="422.08711,365.39215"
       orientation="-56.066927,0"
       id="guide4070" />
    <sodipodi:guide
       position="422.08711,421.45908"
       orientation="0,56.066927"
       id="guide4072" />
    <sodipodi:guide
       position="478.15404,421.45908"
       orientation="56.066927,0"
       id="guide4074" />
    <sodipodi:guide
       position="478.15404,365.39215"
       orientation="0,-56.066927"
       id="guide4076" />
    <sodipodi:guide
       position="449.47122,438.82185"
       orientation="29.516396,0.59032732"
       id="guide4078" />
    <sodipodi:guide
       position="360.09556,644.17481"
       orientation="0,5.6843419e-14"
       id="guide4080" />
    <sodipodi:guide
       position="360.09556,640.2233"
       orientation="0,5.6843419e-14"
       id="guide4082" />
    <sodipodi:guide
       position="151.06205,75.825194"
       orientation="-43.670086,0"
       id="guide4084" />
    <sodipodi:guide
       position="151.06205,119.49528"
       orientation="0,417.8759"
       id="guide4086" />
    <sodipodi:guide
       position="568.93795,119.49528"
       orientation="43.670086,0"
       id="guide4088" />
    <sodipodi:guide
       position="568.93795,75.825194"
       orientation="0,-417.8759"
       id="guide4090" />
    <sodipodi:guide
       position="422.08711,365.39215"
       orientation="-56.066927,0"
       id="guide4092" />
    <sodipodi:guide
       position="422.08711,421.45908"
       orientation="0,56.066927"
       id="guide4094" />
    <sodipodi:guide
       position="478.15404,365.39215"
       orientation="0,-56.066927"
       id="guide4098" />
    <sodipodi:guide
       position="449.47122,438.82185"
       orientation="29.516396,0.59032732"
       id="guide4100" />
    <sodipodi:guide
       position="360.09556,644.17481"
       orientation="0,5.6843419e-14"
       id="guide4102" />
    <sodipodi:guide
       position="360.09556,640.2233"
       orientation="0,5.6843419e-14"
       id="guide4104" />
    <sodipodi:guide
       position="151.06205,75.825194"
       orientation="-43.670086,0"
       id="guide4106" />
    <sodipodi:guide
       position="151.06205,119.49528"
       orientation="0,417.8759"
       id="guide4108" />
    <sodipodi:guide
       position="568.93795,119.49528"
       orientation="43.670086,0"
       id="guide4110" />
    <sodipodi:guide
       position="568.93795,75.825194"
       orientation="0,-417.8759"
       id="guide4112" />
    <sodipodi:guide
       position="422.08711,365.39215"
       orientation="-56.066927,0"
       id="guide4114" />
    <sodipodi:guide
       position="422.08711,421.45908"
       orientation="0,56.066927"
       id="guide4116" />
    <sodipodi:guide
       position="478.15404,365.39215"
       orientation="0,-56.066927"
       id="guide4120" />
    <sodipodi:guide
       position="449.47122,438.82185"
       orientation="29.516396,0.59032732"
       id="guide4122" />
    <sodipodi:guide
       position="360.09556,644.17481"
       orientation="0,5.6843419e-14"
       id="guide4124" />
    <sodipodi:guide
       position="360.09556,640.2233"
       orientation="0,5.6843419e-14"
       id="guide4126" />
    <sodipodi:guide
       position="151.06205,75.825194"
       orientation="-43.670086,0"
       id="guide4128" />
    <sodipodi:guide
       position="151.06205,119.49528"
       orientation="0,417.8759"
       id="guide4130" />
    <sodipodi:guide
       position="568.93795,119.49528"
       orientation="43.670086,0"
       id="guide4132" />
    <sodipodi:guide
       position="568.93795,75.825194"
       orientation="0,-417.8759"
       id="guide4134" />
    <sodipodi:guide
       position="422.08711,365.39215"
       orientation="-56.066927,0"
       id="guide4136" />
    <sodipodi:guide
       position="422.08711,421.45908"
       orientation="0,56.066927"
       id="guide4138" />
    <sodipodi:guide
       position="478.15404,365.39215"
       orientation="0,-56.066927"
       id="guide4142" />
    <sodipodi:guide
       position="449.47122,438.82185"
       orientation="29.516396,0.59032732"
       id="guide4144" />
    <sodipodi:guide
       position="360.09556,644.17481"
       orientation="0,5.6843419e-14"
       id="guide4146" />
    <sodipodi:guide
       position="360.09556,640.2233"
       orientation="0,5.6843419e-14"
       id="guide4148" />
    <sodipodi:guide
       position="151.06205,75.825194"
       orientation="-43.670086,0"
       id="guide4150" />
    <sodipodi:guide
       position="151.06205,119.49528"
       orientation="0,417.8759"
       id="guide4152" />
    <sodipodi:guide
       position="568.93795,119.49528"
       orientation="43.670086,0"
       id="guide4154" />
    <sodipodi:guide
       position="568.93795,75.825194"
       orientation="0,-417.8759"
       id="guide4156" />
    <sodipodi:guide
       position="422.08711,365.39215"
       orientation="-56.066927,0"
       id="guide4158" />
    <sodipodi:guide
       position="422.08711,421.45908"
       orientation="0,56.066927"
       id="guide4160" />
    <sodipodi:guide
       position="478.15404,365.39215"
       orientation="0,-56.066927"
       id="guide4164" />
    <sodipodi:guide
       position="449.47122,438.82185"
       orientation="29.516396,0.59032732"
       id="guide4166" />
    <sodipodi:guide
       position="360.09556,644.17481"
       orientation="0,5.6843419e-14"
       id="guide4168" />
    <sodipodi:guide
       position="360.09556,640.2233"
       orientation="0,5.6843419e-14"
       id="guide4170" />
    <sodipodi:guide
       position="151.06205,75.825194"
       orientation="-43.670086,0"
       id="guide4172" />
    <sodipodi:guide
       position="151.06205,119.49528"
       orientation="0,417.8759"
       id="guide4174" />
    <sodipodi:guide
       position="568.93795,119.49528"
       orientation="43.670086,0"
       id="guide4176" />
    <sodipodi:guide
       position="568.93795,75.825194"
       orientation="0,-417.8759"
       id="guide4178" />
  </sodipodi:namedview>
  <metadata
     id="metadata7">
    <rdf:RDF>
      <cc:Work
         rdf:about="">
        <dc:format>image/svg+xml</dc:format>
        <dc:type
           rdf:resource="http://purl.org/dc/dcmitype/StillImage" />
        <dc:title />
      </cc:Work>
    </rdf:RDF>
  </metadata>
  <g
     inkscape:label="レイヤー 1"
     inkscape:groupmode="layer"
     id="layer1"
     transform="translate(0,-332.36218)">
    <g
       id="g3904"
       transform="translate(0.09556354,-20.043993)">
      <g
         transform="matrix(0.99398438,0,0,0.99398438,111.50606,-129.18554)"
         id="g3840">
        <g
           id="g3833">
          <path
             sodipodi:nodetypes="cc"
             inkscape:connector-curvature="0"
             id="path2987"
             d="m 228.94453,1041.9465 c -0.59389,-3.5634 42.28121,-312.84156 -125.79267,-236.22837"
             style="fill:none;stroke:#323232;stroke-width:4.02420807;stroke-linecap:butt;stroke-linejoin:miter;stroke-miterlimit:4;stroke-opacity:1;stroke-dasharray:none" />
          <path
             sodipodi:nodetypes="cc"
             inkscape:connector-curvature="0"
             id="path2987-3"
             d="M 261.43773,1041.9467 C 224.08671,872.24968 238.2222,713.51936 403.32658,784.78744"
             style="fill:none;stroke:#323232;stroke-width:4.02420807;stroke-linecap:butt;stroke-linejoin:miter;stroke-miterlimit:4;stroke-opacity:1;stroke-dasharray:none" />
          <path
             transform="matrix(0.72608761,0,0,0.72608761,80.991358,573.18891)"
             d="m 393.57143,330.35715 c 0,19.9217 -16.14973,36.07143 -36.07143,36.07143 -19.9217,0 -36.07143,-16.14973 -36.07143,-36.07143 0,-19.9217 16.14973,-36.07143 36.07143,-36.07143 19.9217,0 36.07143,16.14973 36.07143,36.07143 z"
             sodipodi:ry="36.07143"
             sodipodi:rx="36.07143"
             sodipodi:cy="330.35715"
             sodipodi:cx="357.5"
             id="path3011"
             style="fill:none;stroke:#323232;stroke-width:5.54231739;stroke-miterlimit:4;stroke-opacity:1;stroke-dasharray:none"
             sodipodi:type="arc" />
          <path
             inkscape:connector-curvature="0"
             id="path3781"
             d="m 339.91439,767.38617 0.5939,29.69503"
             style="fill:none;stroke:#323232;stroke-width:4.02420807000000025;stroke-linecap:butt;stroke-linejoin:miter;stroke-miterlimit:4;stroke-opacity:1;stroke-dasharray:none" />
          <path
             inkscape:connector-curvature="0"
             id="path3785"
             d="m 249.99783,560.79041 c -115.85696,0 -209.865928,91.3218 -209.865928,203.99374 0,112.67194 94.008968,203.99373 209.865928,203.99373 115.85696,0 209.86593,-91.32179 209.86593,-203.99373 0,-112.67194 -94.00897,-203.99374 -209.86593,-203.99374 z m 0,3.97542 c 113.75634,0 205.89051,89.57106 205.89051,200.01832 0,110.44725 -92.13417,199.99232 -205.89051,199.99232 -113.75634,0 -205.864522,-89.54507 -205.864522,-199.99232 0,-110.44726 92.108182,-200.01832 205.864522,-200.01832 z"
             style="font-size:medium;font-style:normal;font-variant:normal;font-weight:normal;font-stretch:normal;text-indent:0;text-align:start;text-decoration:none;line-height:normal;letter-spacing:normal;word-spacing:normal;text-transform:none;direction:ltr;block-progression:tb;writing-mode:lr-tb;text-anchor:start;baseline-shift:baseline;color:#000000;fill:#323232;fill-opacity:1;stroke:none;stroke-width:4.81080961;marker:none;visibility:visible;display:inline;overflow:visible;enable-background:accumulate;font-family:Sans;-inkscape-font-specification:Sans" />
        </g>
      </g>
      <g
         id="g3900">
        <g
           style="font-size:7.9631815px;font-style:normal;font-variant:normal;font-weight:300;font-stretch:normal;text-align:start;line-height:125%;letter-spacing:0px;word-spacing:0px;writing-mode:lr-tb;text-anchor:start;fill:#323232;fill-opacity:1;stroke:none;font-family:Noto Sans CJK JP;-inkscape-font-specification:Noto Sans CJK JP Light"
           id="text3099">
          <path
             d="m 152.82987,955.39541 c -0.0956,1.09891 -0.19111,2.43673 -0.38223,3.91788 -0.57335,3.63121 -1.48115,10.79808 -1.48115,15.28931 0,3.05786 0.23889,5.68571 0.47779,7.45354 l 3.34454,-0.28668 c -0.33446,-2.34117 -0.38224,-4.01344 -0.0956,-5.92461 0.62113,-6.21127 6.21128,-14.81151 12.13589,-14.81151 5.20791,0 7.69243,5.59016 7.69243,13.13925 0,11.89698 -8.17024,16.19711 -18.34717,17.72604 l 2.00672,3.05786 c 11.56253,-2.10228 19.8761,-7.788 19.8761,-20.87946 0,-9.84248 -4.44346,-16.14933 -10.70251,-16.14933 -6.11572,0 -11.18031,6.21128 -12.99592,11.32364 0.28668,-3.39231 1.19448,-10.03361 2.24562,-13.7126 l -3.77455,-0.14333"
             style="font-size:47.77908707px;font-weight:normal;line-height:125%;letter-spacing:15.92636299px;fill:#323232;font-family:Noto Sans CJK JP;-inkscape-font-specification:Noto Sans CJK JP"
             id="path3137" />
          <path
             d="m 230.43904,957.01989 -3.82233,-1.52893 c -0.52557,1.29004 -1.05114,2.34118 -1.62449,3.4401 -2.53229,4.58679 -13.37814,24.60624 -16.81824,34.16205 l 3.67899,1.24225 c 0.62113,-2.29339 2.72341,-7.93133 4.15679,-10.75029 1.86338,-3.72677 5.54237,-7.64466 9.46025,-7.64466 2.19784,0 3.48788,1.24226 3.58344,3.39232 0.14333,2.67562 0.0478,6.30684 0.19111,9.1258 0.14334,2.67563 1.67228,5.87683 6.68907,5.87683 6.78463,0 10.70252,-5.25571 13.23481,-12.80479 l -2.81896,-2.24562 c -1.24226,4.87346 -4.39569,11.56254 -9.89028,11.56254 -2.15005,0 -3.77454,-1.05114 -3.91788,-3.48788 -0.14334,-2.34117 -0.0956,-5.97238 -0.19112,-8.88691 -0.14333,-3.67898 -2.43673,-5.68571 -5.54237,-5.68571 -2.34117,0 -4.82569,0.86003 -7.21464,3.10564 2.48451,-4.68234 7.26242,-13.33036 9.31692,-16.57934 0.52557,-0.9078 1.09892,-1.76783 1.52893,-2.2934"
             style="font-size:47.77908707px;font-weight:normal;line-height:125%;letter-spacing:15.92636299px;fill:#323232;font-family:Noto Sans CJK JP;-inkscape-font-specification:Noto Sans CJK JP"
             id="path3139" />
          <path
             d="m 305.0859,954.77428 -2.34117,1.00336 c 1.33781,1.76782 2.9623,4.68235 3.91788,6.64129 l 2.38896,-1.09892 c -1.05114,-1.95894 -2.77119,-4.87347 -3.96567,-6.54573 m 5.20792,-1.86339 -2.34117,1.00336 c 1.38559,1.76783 2.9623,4.49124 4.01344,6.59352 l 2.38896,-1.09892 c -0.95559,-1.76783 -2.81897,-4.77791 -4.06123,-6.49796 m -31.72531,10.7503 c 3.72676,0.33445 7.74022,0.52557 12.47034,0.52557 4.30011,0 9.3647,-0.33446 12.5659,-0.57335 l 0,-3.48787 c -3.39231,0.38223 -8.07467,0.6689 -12.61368,0.6689 -4.68234,0 -9.03025,-0.19111 -12.42256,-0.57335 l 0,3.4401 m -1.91116,15.14597 c -0.43002,1.91116 -0.95559,4.109 -0.95559,6.54573 0,5.82905 5.59017,8.93469 15.00264,8.93469 6.73684,0 12.8048,-0.71668 16.05377,-1.67227 l -0.0478,-3.63121 c -3.44009,1.09892 -9.50804,1.81561 -16.10155,1.81561 -7.69243,0 -11.4192,-2.5323 -11.4192,-6.21128 0,-1.76783 0.33445,-3.53566 0.95558,-5.44682 l -3.48787,-0.33445"
             style="font-size:47.77908707px;font-weight:normal;line-height:125%;letter-spacing:15.92636299px;fill:#323232;font-family:Noto Sans CJK JP;-inkscape-font-specification:Noto Sans CJK JP"
             id="path3141" />
          <path
             d="m 344.56735,986.59515 c -2.10228,0 -5.0168,-2.67564 -5.0168,-8.83913 0,-6.59351 5.78127,-14.47707 15.05041,-15.57598 -0.52557,4.39567 -1.43338,8.98247 -2.67563,12.94813 -2.48451,8.31355 -5.2557,11.46698 -7.35798,11.46698 m 12.37478,7.45354 c 11.13252,-1.3856 17.72604,-7.97912 17.72604,-17.86938 0,-9.46025 -6.97575,-17.20047 -17.96493,-17.20047 -11.41919,0 -20.49723,8.88692 -20.49723,19.01607 0,7.78799 4.20456,12.51812 8.218,12.51812 4.25234,0 7.97911,-4.87347 10.89363,-14.6204 1.29004,-4.44345 2.19784,-9.26914 2.77119,-13.76037 8.36133,0.62112 13.09147,6.6413 13.09147,13.90371 0,8.40911 -6.16351,12.94814 -12.23145,14.23817 -1.09891,0.23889 -2.53229,0.47779 -3.96566,0.57335 l 1.95894,3.2012"
             style="font-size:47.77908707px;font-weight:normal;line-height:125%;letter-spacing:15.92636299px;fill:#323232;font-family:Noto Sans CJK JP;-inkscape-font-specification:Noto Sans CJK JP"
             id="path3143" />
          <path
             d="m 439.52033,968.10464 c -2.24561,-1.72004 -7.5491,-4.73013 -10.94141,-6.25906 l -1.72005,2.62785 c 3.15342,1.43337 8.21801,4.30012 10.7503,6.45018 l 1.91116,-2.81897 m -17.10491,-7.16686 c -2.48451,0.81224 -5.01681,1.38559 -7.50132,1.76783 0.76447,-2.77119 1.43338,-5.7335 1.86339,-7.45354 l -3.82233,-0.33446 c -0.0956,2.53229 -0.76447,5.59016 -1.52893,8.21801 -1.86338,0.14333 -3.72677,0.23889 -5.44682,0.23889 -2.10227,0 -4.01344,-0.0956 -5.68571,-0.28667 l 0.19112,3.2012 c 1.76782,0.0956 3.72677,0.14333 5.49459,0.14333 1.48115,0 2.96231,-0.0478 4.44346,-0.14333 -2.15006,5.63792 -6.25907,13.28259 -10.22473,17.86938 l 3.34454,1.72004 c 3.82232,-5.06457 8.02689,-13.28259 10.36806,-19.97166 3.10564,-0.43001 6.02017,-1.00336 8.60024,-1.72004 l -0.0956,-3.24898 m 2.77119,26.46961 c 0,2.2934 -1.3856,4.53902 -5.35126,4.53902 -3.8701,0 -5.68571,-1.57671 -5.68571,-3.82233 0,-2.29339 2.38895,-3.91788 6.02016,-3.91788 1.76783,0 3.39232,0.28667 4.96903,0.71668 0.0478,0.95558 0.0478,1.81561 0.0478,2.48451 m -0.66891,-17.53492 c 0.0956,3.34453 0.33445,8.07467 0.52557,11.99255 -1.52893,-0.28667 -3.10564,-0.47779 -4.77791,-0.47779 -5.11236,0 -9.31692,2.67563 -9.31692,6.97575 0,4.63456 4.20456,6.64129 9.31692,6.64129 5.68571,0 8.17022,-3.01009 8.17022,-6.68907 0,-0.62113 0,-1.33782 -0.0478,-2.15006 3.10564,1.48115 5.7335,3.58343 7.788,5.44681 l 1.86338,-2.91452 c -2.43673,-2.0545 -5.73349,-4.39568 -9.79471,-5.87683 -0.0956,-3.01008 -0.28668,-6.21128 -0.33446,-8.02689 -0.0478,-1.67226 -0.14333,-2.9623 0,-4.92124 l -3.39231,0"
             style="font-size:47.77908707px;font-weight:normal;line-height:125%;letter-spacing:15.92636299px;fill:#323232;font-family:Noto Sans CJK JP;-inkscape-font-specification:Noto Sans CJK JP"
             id="path3145" />
          <path
             d="m 482.96744,991.61195 c -3.67898,0 -6.54573,-1.38559 -6.54573,-3.77454 0,-1.76783 1.67227,-3.05787 3.91788,-3.05787 3.77455,0 6.11573,2.67564 6.59352,6.54574 -1.24226,0.19112 -2.5323,0.28667 -3.96567,0.28667 m 9.6036,-34.40094 c -0.47779,0.14334 -1.09892,0.2389 -2.38895,0.38223 -2.48451,0.2389 -13.85594,0.62113 -16.29267,0.62113 -0.9078,0 -2.19784,-0.0478 -3.2012,-0.19111 l 0.0956,3.58343 c 1.00336,-0.14334 2.00672,-0.19112 3.05786,-0.28668 2.43673,-0.0956 12.27923,-0.57335 14.81151,-0.6689 -2.43673,2.10227 -8.4569,7.21464 -11.08474,9.41248 -2.77119,2.29339 -8.88692,7.45354 -12.90036,10.75029 l 2.48452,2.58007 c 6.16349,-6.1635 10.41584,-9.41248 18.29939,-9.41248 6.06793,0 10.79807,3.48788 10.79807,8.218 0,4.01344 -2.2934,6.83241 -6.21128,8.31356 -0.62113,-4.39567 -3.77456,-8.45689 -9.65138,-8.45689 -4.30011,0 -7.11908,2.91452 -7.11908,6.02016 0,3.77455 3.77455,6.59352 10.17694,6.59352 9.74693,0 16.19711,-4.77792 16.19711,-12.47035 0,-6.30683 -5.59016,-10.98919 -13.42592,-10.98919 -2.24561,0 -4.53901,0.2389 -6.78463,1.05114 3.77455,-3.15341 10.36807,-9.03025 12.66146,-10.75029 0.66891,-0.52557 1.67227,-1.19448 2.48451,-1.76783 l -2.00672,-2.53229"
             style="font-size:47.77908707px;font-weight:normal;line-height:125%;letter-spacing:15.92636299px;fill:#323232;font-family:Noto Sans CJK JP;-inkscape-font-specification:Noto Sans CJK JP"
             id="path3147" />
          <path
             d="m 567.26567,968.00908 0,-3.15342 -19.01607,0 0,-11.75365 -3.29676,0 0,11.75365 -18.82496,0 0,3.15342 17.34381,0 c -4.34789,8.40912 -11.75366,16.72269 -19.11164,20.73613 0.71669,0.62113 1.76783,1.8156 2.34118,2.62785 6.88018,-4.109 13.66482,-11.75367 18.25161,-20.01944 l 0,25.22736 3.29676,0 0,-25.27514 c 4.68234,8.07466 11.51476,15.81488 18.15605,19.97166 0.57335,-0.9078 1.67227,-2.10228 2.43673,-2.72341 -7.16685,-4.01344 -14.76374,-12.32701 -19.15941,-20.54501 l 17.5827,0"
             style="font-size:47.77908707px;font-weight:normal;line-height:125%;letter-spacing:15.92636299px;fill:#323232;font-family:Noto Sans CJK JP;-inkscape-font-specification:Noto Sans CJK JP"
             id="path3149" />
        </g>
      </g>
    </g>
  </g>
</svg>
